<svg width="58" height="47" viewBox="0 0 58 47" fill="none" xmlns="http://www.w3.org/2000/svg">
<path d="M33.1856 0H58C58 2.632 58 5.264 58 7.896C58 10.528 58 13.16 58 15.792C58 18.424 58 21.0769 58 23.7507C58 27.5942 58 31.4587 58 35.344C58 39.2293 58 43.1147 58 47H33.1856C33.1856 44.4516 33.1856 41.9031 33.1856 39.3547C33.1856 36.8062 33.1856 34.2578 33.1856 31.7093C33.1856 31.6676 33.1656 31.6467 33.1258 31.6467C33.1258 31.6049 33.1058 31.584 33.066 31.584H24.8742C24.8344 31.584 24.8144 31.6049 24.8144 31.6467C24.8144 31.6467 24.8144 31.6676 24.8144 31.7093C24.8144 34.2578 24.8144 36.8062 24.8144 39.3547C24.8144 41.9031 24.8144 44.4516 24.8144 47H0C0 44.4933 0 41.9867 0 39.48C0 36.9733 0 34.4667 0 31.96C0 29.4533 0 26.9467 0 24.44C0 21.9333 0 19.4267 0 16.92C0 14.4133 0 11.9067 0 9.4C0 7.81245 0 6.24578 0 4.7C0 3.11245 0 1.54578 0 0H24.8144C24.8144 2.00533 24.8144 4.03156 24.8144 6.07867C24.8144 8.12578 24.8144 10.1729 24.8144 12.22C24.8144 14.2253 24.8144 16.2516 24.8144 18.2987C24.8144 18.3404 24.8144 18.3822 24.8144 18.424C24.8144 18.424 24.8344 18.424 24.8742 18.424H33.066C33.1058 18.424 33.1258 18.424 33.1258 18.424C33.1656 18.3822 33.1856 18.3404 33.1856 18.2987C33.1856 15.2489 33.1856 12.1991 33.1856 9.14933C33.1856 6.09956 33.1856 3.04978 33.1856 0Z" fill="white"/>
</svg>
